<?xml version="1.0" encoding="UTF-8" standalone="no"?>
<!-- Created with Inkscape (http://www.inkscape.org/) -->

<svg
   width="200"
   height="400"
   viewBox="0 0 52.916665 105.83333"
   version="1.1"
   id="svg5"
   inkscape:version="1.2.2 (732a01da63, 2022-12-09)"
   sodipodi:docname="cupboard.svg"
   xmlns:inkscape="http://www.inkscape.org/namespaces/inkscape"
   xmlns:sodipodi="http://sodipodi.sourceforge.net/DTD/sodipodi-0.dtd"
   xmlns="http://www.w3.org/2000/svg"
   xmlns:svg="http://www.w3.org/2000/svg">
  <sodipodi:namedview
     id="namedview7"
     pagecolor="#ffffff"
     bordercolor="#000000"
     borderopacity="0.25"
     inkscape:showpageshadow="2"
     inkscape:pageopacity="0.0"
     inkscape:pagecheckerboard="false"
     inkscape:deskcolor="#d1d1d1"
     inkscape:document-units="mm"
     showgrid="false"
     showborder="false"
     inkscape:zoom="1.4770342"
     inkscape:cx="-86.998663"
     inkscape:cy="188.55352"
     inkscape:window-width="1920"
     inkscape:window-height="991"
     inkscape:window-x="-9"
     inkscape:window-y="-9"
     inkscape:window-maximized="1"
     inkscape:current-layer="layer1" />
  <defs
     id="defs2" />
  <g
     inkscape:label="Vrstva 1"
     inkscape:groupmode="layer"
     id="layer1">
    <rect
       style="fill:none;fill-opacity:0.823529;stroke:#e2deb5;stroke-width:1.67825;stroke-linecap:round;stroke-linejoin:round;stroke-opacity:1"
       id="rect234"
       width="51.626617"
       height="104.29126"
       x="0.51901865"
       y="1.0564131"
       ry="2.1519806" />
    <path
       style="fill:none;fill-opacity:0.823529;stroke:#e2deb5;stroke-width:1.715;stroke-linecap:round;stroke-linejoin:round;stroke-opacity:1"
       id="path397"
       d="m 6.1686432,52.014102 c 3.0325962,0.116494 6.0683978,0.176611 9.1033088,0.204405 1.068082,0.01045 2.1357,-0.0029 3.201946,-0.06446 0.02216,0.005 0.09313,-0.308445 0.07096,-0.313461 v 0 c -1.054025,-0.0062 -2.107811,-0.02778 -3.161673,-0.04704 -3.042987,-0.05383 -6.0860879,-0.09475 -9.1295447,-0.06032 -0.019858,-0.006 -0.1048562,0.274851 -0.084996,0.280862 z" />
    <path
       style="fill:none;fill-opacity:0.823529;stroke:#e2deb5;stroke-width:1.715;stroke-linecap:round;stroke-linejoin:round;stroke-opacity:1"
       id="path642"
       d="m 4.9281833,7.9345215 c -0.00303,0.2114719 -0.00743,0.4229288 -0.0091,0.634416 -0.00757,0.96256 0.00132,1.9246975 0.036076,2.8867245 0.020849,0.577144 -0.089352,0.653357 0.1146162,0.425772 C 5.0245827,11.705397 5.0047088,11.520832 4.9341934,11.353324 4.5219974,10.374162 3.6883014,8.9197697 2.6140805,8.5477182 2.2599016,8.4250497 1.8305838,8.371002 1.4898088,8.5270876 1.0832436,8.7133072 0.86731336,9.1692649 0.55606563,9.4903535 0.36100829,10.05512 0.06946164,10.595338 -0.02910639,11.184654 c -0.44891798,2.68398 0.54061391,5.970227 3.00613799,7.408058 0.4994444,0.291263 1.0989093,0.359879 1.6483639,0.539819 0.5504408,-0.05861 1.1237849,-0.0081 1.6513222,-0.175819 0.9377916,-0.298122 1.6167095,-0.981434 2.0683974,-1.823909 0.1836513,-0.342542 0.2423308,-0.738597 0.3634962,-1.107895 0.00281,-0.0097 -0.1346872,-0.04943 -0.1374946,-0.0397 v 0 C 8.4467307,16.336252 8.3875175,16.717761 8.1979594,17.03834 7.7418916,17.80964 7.0310456,18.38957 6.1751646,18.668971 5.7317877,18.813705 5.2502183,18.789815 4.7877452,18.85024 4.2719844,18.689122 3.7092035,18.635681 3.2404626,18.366887 0.8844858,17.01588 -0.06283833,13.823262 0.28889613,11.274613 0.36588186,10.716779 0.61987591,10.198102 0.78536579,9.6598466 1.0413721,9.3665235 1.2136021,8.9699443 1.5533847,8.7798771 1.8051249,8.639059 2.1456845,8.6516757 2.4180895,8.7465354 3.5792298,9.1508806 4.5426534,10.91857 4.9670914,12.009215 5.3542771,11.956716 5.194137,12.051552 5.1927397,11.454024 5.1899933,10.279893 5.1577425,9.1050588 5.103397,7.932303 5.1032401,7.9199125 4.9280267,7.9221324 4.9281833,7.9345255 Z" />
    <path
       style="fill:none;fill-opacity:0.823529;stroke:#e2deb5;stroke-width:1.715;stroke-linecap:round;stroke-linejoin:round;stroke-opacity:1"
       id="path644"
       d="m 7.5361873,9.2201324 c -0.068412,2.3702806 -0.093313,4.9394576 0.7870206,7.1819036 0.1902481,0.484613 0.4899173,0.91878 0.734876,1.378169 0.3227858,0.242498 0.5809199,0.613968 0.9683571,0.727492 1.030836,0.302048 1.658776,-0.412516 2.14001,-1.196293 0.653436,-1.064237 1.001128,-2.539794 1.144199,-3.753124 0.07316,-0.620454 0.03609,-1.248983 0.05413,-1.873474 -0.294413,-1.660312 -0.02595,-0.972904 -0.634875,-2.1209354 -0.0028,-0.0072 -0.104684,0.032325 -0.101889,0.03953 v 0 c 0.466985,1.1356954 0.269813,0.4590714 0.424032,2.0713434 -0.0292,0.608837 -0.01321,1.221531 -0.08761,1.82651 -0.145612,1.184083 -0.447421,2.58031 -1.040887,3.642656 -0.296322,0.530438 -0.898788,1.405244 -1.705391,1.176319 C 9.8657104,18.220198 9.6305181,17.882521 9.3366959,17.663668 9.1052501,17.21949 8.822719,16.798394 8.6423586,16.331135 7.770238,14.071735 7.8402756,11.598103 7.6808279,9.2234167 7.6810602,9.2131905 7.5364196,9.2099044 7.5361873,9.2201324 Z" />
    <path
       style="fill:none;fill-opacity:0.823529;stroke:#e2deb5;stroke-width:1.715;stroke-linecap:round;stroke-linejoin:round;stroke-opacity:1"
       id="path646"
       d="m 13.695862,12.299616 c 0.135937,1.134371 0.344563,2.26255 0.626753,3.369884 0.08418,0.330339 0.167944,0.662186 0.287295,0.981507 0.04119,0.110206 0.108003,0.380865 0.190595,0.297074 0.15987,-0.162192 0.112716,-0.44131 0.169074,-0.661965 -0.174285,-2.407566 -0.513316,-4.801138 -0.928943,-7.1779986 -0.302161,-1.7279723 -0.198539,-0.771211 -0.300737,-1.9621008 0.062,0.023601 0.133329,0.030454 0.185984,0.070801 0.19639,0.1504837 0.36812,0.3306763 0.552817,0.4953029 0.329677,0.2938534 0.670113,0.5759675 0.9903,0.8801344 0.684887,0.6506212 1.541786,1.4920131 2.023496,2.3205321 0.231917,0.398886 0.3494,0.854108 0.524101,1.281163 -0.01877,0.424848 0.05888,0.865182 -0.05631,1.274544 -0.331365,1.177524 -1.494304,2.064116 -2.735076,1.937659 -0.399304,-0.0407 -0.760855,-0.255924 -1.141283,-0.383886 -0.01,-0.0057 -0.09078,0.13529 -0.08081,0.141004 v 0 c 0.398739,0.162224 0.768708,0.43622 1.196218,0.486672 1.418627,0.167417 2.72412,-0.815683 3.073627,-2.17226 0.115026,-0.446464 0.02444,-0.921764 0.03666,-1.382646 C 18.126831,11.646348 18.004014,11.168258 17.761261,10.748968 17.269556,9.8996787 16.402746,9.0514574 15.686264,8.4004607 15.473099,8.2067788 14.292968,7.1824458 13.865689,7.0369199 c -0.116643,-0.039727 -0.233856,0.077762 -0.350784,0.1166423 -0.0042,1.1140223 -0.03701,0.4803289 0.198948,1.9988353 0.36943,2.3774355 0.741974,4.7546685 1.053439,7.1406085 0.0666,0.193763 0.141898,0.384749 0.199789,0.581288 0.02871,0.09746 -0.08346,-0.185969 -0.112064,-0.283465 -0.09483,-0.323271 -0.177687,-0.650021 -0.257776,-0.977258 -0.195356,-0.798209 -0.379883,-1.664995 -0.545111,-2.470893 -0.05907,-0.288098 -0.11367,-0.577093 -0.170504,-0.865639 -0.0016,-0.01313 -0.18736,0.0094 -0.185764,0.02258 z" />
    <path
       style="fill:none;fill-opacity:0.823529;stroke:#e2deb5;stroke-width:1.715;stroke-linecap:round;stroke-linejoin:round;stroke-opacity:1"
       id="path648"
       d="m 20.590515,8.903305 c -0.01255,2.013349 0.195276,4.017329 0.350886,6.02168 0.08502,1.095079 0.206137,0.735535 -0.03473,1.267714 -0.556221,-1.764296 -1.003708,-3.558316 -1.240521,-5.39635 -0.07024,-0.545162 -0.163819,-1.0936515 -0.141937,-1.6428839 0.01609,-0.4039558 0.169755,-0.7905316 0.254633,-1.1857977 0.240761,-0.1960271 0.428426,-0.4878776 0.722282,-0.5880814 0.330579,-0.1127257 0.706447,-0.089893 1.047696,-0.015473 1.232001,0.2686759 2.239393,1.392524 2.247099,2.682892 0.0026,0.432998 -0.209524,0.840283 -0.314286,1.260425 -0.796174,1.08254 -0.678164,1.134915 -1.811485,1.854859 -0.288811,0.183467 -0.614866,0.300456 -0.91967,0.455909 -0.153374,0.07822 -0.374893,0.09247 -0.454689,0.24503 -0.05191,0.09924 0.07747,0.234548 0.177237,0.285434 0.263505,0.134399 0.569437,0.160414 0.854155,0.240621 1.274474,0.384292 2.652268,0.886641 3.479764,2.012009 0.354899,0.482651 0.677859,1.233167 -0.02205,1.666361 -0.346948,0.214735 -0.795494,0.18201 -1.193241,0.273015 -1.827301,-0.1395 -3.563578,-0.754634 -5.138154,-1.682956 -0.349255,-0.20591 -0.653113,-0.480579 -0.97967,-0.720869 -0.0075,-0.0084 -0.126106,0.0977 -0.118605,0.106083 v 0 c 0.306496,0.281089 0.576443,0.608169 0.919489,0.843266 0.979766,0.671457 2.382039,1.294026 3.533195,1.546959 0.632111,0.138888 1.288249,0.125811 1.932374,0.188716 0.435133,-0.148176 0.944519,-0.159815 1.305398,-0.44453 0.267154,-0.21077 0.429824,-0.585124 0.431016,-0.925409 0.0013,-0.377135 -0.204498,-0.742313 -0.4241,-1.048921 -0.846277,-1.181565 -2.27399,-1.69789 -3.610123,-2.049105 -0.277309,-0.05133 -0.551304,-0.125967 -0.831928,-0.153993 -0.06251,-0.0062 -0.23713,0.08084 -0.180896,0.05284 0.649706,-0.323466 0.670775,-0.171146 1.459178,-0.671836 1.189555,-0.75545 1.085706,-0.853322 1.896735,-2.008728 0.102181,-0.462582 0.318897,-0.914174 0.306541,-1.387745 -0.03896,-1.4930942 -1.182878,-2.6468286 -2.6171,-2.8788463 -0.38437,-0.062181 -0.803623,-0.048971 -1.163929,0.098631 -0.331439,0.1357771 -0.538295,0.472639 -0.807443,0.7089585 -0.09693,0.4194974 -0.267511,0.8285715 -0.290801,1.2584924 -0.04633,0.8552384 0.293573,2.7446764 0.460712,3.5277224 0.122623,0.574487 0.569287,2.40133 0.895096,3.028219 0.113567,0.218514 0.332871,0.363017 0.499306,0.544525 0.377188,-0.575604 0.241738,-0.246084 0.186131,-1.359698 -0.100129,-2.005205 -0.348206,-4.002521 -0.471879,-6.0062936 2.02e-4,-0.013555 -0.191487,-0.016402 -0.191688,-0.00285 z" />
    <path
       style="fill:none;fill-opacity:0.823529;stroke:#e2deb5;stroke-width:1.715;stroke-linecap:round;stroke-linejoin:round;stroke-opacity:1"
       id="path650"
       d="m 26.10609,12.053947 c -0.0075,0.283356 -0.0417,0.567273 -0.02239,0.850069 0.106184,1.555122 0.495047,3.214749 1.550356,4.42455 0.334807,0.38382 0.725681,0.765029 1.20346,0.941486 0.441375,0.163011 0.940893,0.01615 1.411338,0.02423 0.398145,-0.342231 0.911079,-0.584709 1.194437,-1.026694 0.362996,-0.566204 0.634672,-1.228243 0.681353,-1.899192 C 32.28823,13.017086 30.654547,10.751499 28.465213,9.9974144 27.813238,9.7728483 27.092849,9.8609376 26.406668,9.7927003 24.12641,10.966808 25.004652,10.121392 23.74394,12.299532 c -0.0067,0.01402 0.191521,0.108446 0.198198,0.09443 v 0 c 1.171938,-1.980793 0.374409,-1.239937 2.350335,-2.267203 0.640917,0.05544 1.311763,-0.03503 1.922752,0.166325 2.055283,0.677311 3.643625,2.77849 3.567742,4.978993 -0.02164,0.627884 -0.255286,1.253372 -0.572301,1.795781 -0.236422,0.404508 -0.689229,0.634862 -1.033841,0.952293 -0.373862,0.01373 -0.77075,0.171095 -1.121585,0.04119 -0.448122,-0.165927 -0.81825,-0.518178 -1.134385,-0.876513 -1.209328,-1.370759 -1.57291,-3.353503 -1.625836,-5.117138 9.79e-4,-0.01336 -0.187957,-0.0271 -0.188928,-0.01375 z" />
    <path
       style="fill:none;fill-opacity:0.823529;stroke:#e2deb5;stroke-width:1.715;stroke-linecap:round;stroke-linejoin:round;stroke-opacity:1"
       id="path652"
       d="m 34.402019,18.739576 c -0.08046,-2.144669 -0.282472,-4.292263 -0.188841,-6.440386 0.07267,-1.667212 -0.168802,-1.227514 0.55436,-2.014572 0.171561,0.248404 0.376627,0.476739 0.514683,0.745213 0.697635,1.356646 1.222592,2.898961 1.680107,4.339455 0.274119,0.863069 1.017712,3.341289 1.124498,4.401646 0.03035,0.301358 -0.0795,0.600526 -0.119253,0.900788 -0.18678,-0.05038 -0.395761,-0.04945 -0.560337,-0.151132 -0.734764,-0.45397 -1.931231,-1.656799 -2.469838,-2.197921 -0.545362,-0.547905 -1.938541,-2.00812 -2.467189,-2.663775 -0.217813,-0.270145 -0.39216,-0.572621 -0.588241,-0.858931 0.0493,-0.112915 0.03022,-0.302264 0.147897,-0.338746 0.241821,-0.07496 0.506484,0.02361 0.757293,0.05814 0.480407,0.06614 0.95621,0.162243 1.434277,0.243587 1.206334,0.205257 2.347064,0.424851 3.567584,0.534584 0.492215,0.04425 0.98751,0.04194 1.481267,0.06292 0.356957,-0.08615 0.753647,-0.0735 1.070872,-0.258454 0.595249,-0.347062 0.569005,-1.058389 0.467056,-1.620635 -0.109824,-0.605675 -0.509458,-1.449194 -0.867297,-1.953482 -0.130685,-0.184169 -0.315274,-0.323404 -0.472913,-0.485105 -0.140232,0.04651 -0.363591,0.0033 -0.420696,0.13954 -0.215794,0.514916 0.05164,2.431427 0.08525,2.709298 0.21703,1.794391 0.518438,3.580792 0.772978,5.370271 0.01138,0.0894 0.01969,0.357148 0.0341,0.268193 0.182242,-1.124044 -0.0027,-1.547544 -0.10446,-2.843136 -0.116888,-1.487582 -0.227526,-3.30585 -0.222041,-4.801428 0.0021,-0.602599 0.05275,-1.204052 0.07913,-1.806078 0.08418,-0.2961729 0.05867,-0.6493186 0.252542,-0.8885186 0.07647,-0.09435 0.233167,0.1055092 0.299807,0.2070422 0.435925,0.6641544 0.820823,1.8784874 0.914633,2.5900654 0.217826,1.65229 -0.02683,2.333261 -0.30617,3.952103 -0.934188,2.824779 -0.134676,0.580221 -1.0917,2.904971 -0.117586,0.285634 -0.562033,0.963529 -0.05609,1.271123 0.56904,0.345954 1.740596,0.162572 2.269099,0.134963 1.53802,-0.313405 1.729361,-0.239255 3.117177,-0.957829 0.407919,-0.21121 0.774655,-0.493903 1.161984,-0.740854 0.0086,-0.0079 -0.10278,-0.129073 -0.111352,-0.121199 v 0 c -0.387988,0.231195 -0.754216,0.503608 -1.163966,0.693585 -1.193154,0.553193 -1.687221,0.573131 -2.950914,0.820835 -0.194677,0.0169 -1.699535,0.211217 -2.098333,0.06746 -0.49453,-0.178267 0.122147,-1.020529 0.140501,-1.060629 0.898155,-1.962361 0.360747,-0.590138 1.168834,-2.963534 0.112776,-0.68006 0.294807,-1.352207 0.338326,-2.040179 0.08975,-1.41884 -0.04082,-2.413616 -0.586674,-3.703205 -0.160901,-0.3801309 -0.32721,-0.7914908 -0.641252,-1.0593854 -0.171374,-0.146192 -0.503307,-0.2099005 -0.672949,-0.061705 -0.251915,0.2200645 -0.225343,0.6299023 -0.338016,0.9448524 -0.04331,0.611049 -0.120042,1.220646 -0.129916,1.833148 -0.0245,1.519737 0.10305,3.320232 0.270267,4.827387 0.06981,0.629261 0.146521,2.13829 0.669292,2.806659 0.06633,0.08481 0.0465,-0.210264 0.06974,-0.315396 -0.05003,-0.474586 -0.08989,-0.950354 -0.150084,-1.423757 -0.232596,-1.82912 -0.321213,-2.10393 -0.596464,-3.945767 -0.04178,-0.279575 -0.304726,-1.963216 -0.287665,-2.509588 0.0019,-0.06016 0.06368,-0.102155 0.09552,-0.153232 0.140137,0.152304 0.302633,0.286726 0.42041,0.456911 0.337439,0.487587 0.723535,1.271019 0.857409,1.846799 0.112133,0.482256 0.200072,1.073947 -0.3282,1.381089 -0.257935,0.149966 -0.581226,0.135119 -0.871839,0.202678 -0.483966,-0.02841 -0.96942,-0.03783 -1.451893,-0.08524 -1.259055,-0.12373 -2.321013,-0.328503 -3.571902,-0.516361 -0.465939,-0.06997 -1.932345,-0.402606 -2.517759,-0.0772 -0.164827,0.09162 -0.119237,0.35782 -0.178856,0.53673 0.186608,0.307262 0.343226,0.634875 0.559822,0.921788 0.554103,0.733987 1.856422,2.094338 2.47401,2.694369 0.4558,0.442842 1.950101,1.875685 2.673802,2.167407 0.262247,0.105711 0.565394,-0.01121 0.84809,-0.01681 0.07263,-0.329413 0.231799,-0.6512 0.217895,-0.988239 -0.04761,-1.154073 -0.740177,-3.503719 -1.053782,-4.467918 -0.321633,-0.988872 -1.178417,-3.422232 -1.863961,-4.378663 -0.225565,-0.314694 -0.609211,-0.478028 -0.913815,-0.717042 -0.836223,0.874587 -0.631817,0.440066 -0.720897,2.156767 -0.111739,2.153347 0.140137,4.312551 0.372481,6.448676 0.0011,0.0122 0.173622,-0.0028 0.172561,-0.015 z" />
    <path
       style="fill:none;fill-opacity:0.823529;stroke:#e2deb5;stroke-width:1.715;stroke-linecap:round;stroke-linejoin:round;stroke-opacity:1"
       id="path654"
       d="m 44.138916,9.6481658 c 0.312467,2.7225292 0.279913,5.4728392 0.469339,8.2048872 0.03263,0.470582 0.0935,0.938779 0.140253,1.408169 0.16597,0.609567 0.07105,0.65864 0.265162,0.180123 5.3e-4,-0.0049 -0.06817,-0.0115 -0.06864,-0.0066 v 0 c 0.06328,0.477849 0.04089,0.416839 0.04331,-0.190094 -0.05399,-3.005757 -0.106677,-6.064641 -0.543697,-9.043088 -0.02883,-0.196475 -0.07774,-0.3894738 -0.11661,-0.5842105 -0.0021,-0.013372 -0.191302,0.017489 -0.189121,0.030862 z" />
    <path
       style="fill:none;fill-opacity:0.823529;stroke:#e2deb5;stroke-width:1.715;stroke-linecap:round;stroke-linejoin:round;stroke-opacity:1"
       id="path656"
       d="m 42.704464,8.28002 c 1.290754,0.3850457 2.550136,0.9185274 3.73888,1.5510515 1.24706,0.6635545 2.341679,1.2993015 3.296338,2.3697445 0.423153,0.474474 0.709972,1.054832 1.064958,1.582249 0.104378,0.599872 0.358011,1.192387 0.313132,1.799616 -0.04852,0.656556 -0.268761,1.309123 -0.585536,1.886249 -1.080207,1.968001 -3.31619,3.256106 -5.581875,3.028467 -0.792446,-0.07962 -1.523283,-0.465661 -2.284923,-0.698491 -0.635902,-0.486572 -1.271802,-0.973144 -1.907704,-1.459716 -0.01429,-0.01378 -0.209095,0.188105 -0.194821,0.201881 v 0 c 0.651463,0.515191 1.302922,1.030381 1.954385,1.545572 0.79485,0.271733 1.548587,0.732782 2.384549,0.815198 3.122361,0.307827 6.415958,-2.159273 6.582439,-5.38256 0.03355,-0.64961 -0.240194,-1.278587 -0.360288,-1.917881 -0.369851,-0.550424 -0.668047,-1.156472 -1.109552,-1.651273 -1.534784,-1.720048 -4.257429,-2.9583596 -6.436069,-3.6463184 -0.265329,-0.083784 -0.540094,-0.1340781 -0.810141,-0.2011172 -0.01254,-0.00451 -0.07631,0.1728193 -0.06377,0.1773286 z" />
    <path
       style="fill:none;fill-opacity:0.823529;stroke:#e2deb5;stroke-width:1.715;stroke-linecap:round;stroke-linejoin:round;stroke-opacity:1"
       id="path658"
       d="m 14.888427,16.395156 c -0.208504,1.879163 -0.09932,3.804113 0.358907,5.639078 0.04839,0.09475 0.05584,0.226456 0.145164,0.284262 0.06885,0.04456 0.191422,0.03055 0.243876,-0.03249 0.190494,-0.228946 0.06884,-1.398561 0.04067,-1.705661 -0.03774,-0.349732 -0.06847,-0.701041 -0.13213,-1.047386 -0.0026,-0.01395 -0.04684,-0.241631 -0.06844,-0.253338 -0.06269,-0.03397 -0.138446,-0.03422 -0.207668,-0.05133 -0.141857,-0.183698 -0.239901,-0.374724 -0.348278,-0.583114 -0.0016,-0.0041 -0.06003,0.018 -0.05846,0.02213 v 0 c 0.0061,0.01508 0.22453,0.572252 0.261121,0.614599 0.05101,0.05903 0.136029,0.07644 0.204043,0.114664 -0.0095,-0.02222 -0.0068,-0.05601 -0.02854,-0.06668 -0.01861,-0.0092 0.01159,0.03988 0.01547,0.06025 0.01077,0.05661 0.01989,0.113526 0.02846,0.170508 0.03798,0.252567 0.0499,0.363239 0.07944,0.629353 0.01502,0.135269 0.02902,0.27065 0.04353,0.405974 0.0368,0.435815 0.06227,0.865895 0.05452,1.30357 -0.0015,0.08546 -0.02375,0.171851 -0.01005,0.256218 0.0061,0.03776 0.07572,0.130504 0.06678,0.09331 -0.02152,-0.08953 -0.07047,-0.170152 -0.105699,-0.255228 -0.379691,-1.82562 -0.485394,-3.703201 -0.405025,-5.564449 0.0024,-0.01257 -0.175263,-0.04682 -0.177685,-0.03426 z" />
  </g>
</svg>
