<?xml version="1.0" encoding="UTF-8" standalone="no"?>
<!-- Created with Inkscape (http://www.inkscape.org/) -->

<svg
   width="200"
   height="400"
   viewBox="0 0 52.916665 105.83333"
   version="1.1"
   id="svg5"
   inkscape:version="1.2.2 (732a01da63, 2022-12-09)"
   sodipodi:docname="freezer.svg"
   xmlns:inkscape="http://www.inkscape.org/namespaces/inkscape"
   xmlns:sodipodi="http://sodipodi.sourceforge.net/DTD/sodipodi-0.dtd"
   xmlns="http://www.w3.org/2000/svg"
   xmlns:svg="http://www.w3.org/2000/svg">
  <sodipodi:namedview
     id="namedview7"
     pagecolor="#ffffff"
     bordercolor="#000000"
     borderopacity="0.25"
     inkscape:showpageshadow="2"
     inkscape:pageopacity="0.0"
     inkscape:pagecheckerboard="false"
     inkscape:deskcolor="#d1d1d1"
     inkscape:document-units="mm"
     showgrid="false"
     showborder="false"
     inkscape:zoom="1.4770342"
     inkscape:cx="92.076404"
     inkscape:cy="188.215"
     inkscape:window-width="1920"
     inkscape:window-height="1009"
     inkscape:window-x="-8"
     inkscape:window-y="-8"
     inkscape:window-maximized="1"
     inkscape:current-layer="layer1" />
  <defs
     id="defs2" />
  <g
     inkscape:label="Vrstva 1"
     inkscape:groupmode="layer"
     id="layer1">
    <rect
       style="fill:none;fill-opacity:0.823529;stroke:#23232c;stroke-width:1.67825;stroke-linecap:round;stroke-linejoin:round"
       id="rect234"
       width="51.626617"
       height="104.29126"
       x="0.51901865"
       y="1.0564131"
       ry="2.1519806" />
    <path
       style="fill:none;fill-opacity:0.823529;stroke:#23232c;stroke-width:1.715;stroke-linecap:round;stroke-linejoin:round"
       id="path397"
       d="m 6.1686432,52.014102 c 3.0325962,0.116494 6.0683978,0.176611 9.1033088,0.204405 1.068082,0.01045 2.1357,-0.0029 3.201946,-0.06446 0.02216,0.005 0.09313,-0.308445 0.07096,-0.313461 v 0 c -1.054025,-0.0062 -2.107811,-0.02778 -3.161673,-0.04704 -3.042987,-0.05383 -6.0860879,-0.09475 -9.1295447,-0.06032 -0.019858,-0.006 -0.1048562,0.274851 -0.084996,0.280862 z" />
    <path
       style="fill:none;fill-opacity:0.823529;stroke:#23232c;stroke-width:1.715;stroke-linecap:round;stroke-linejoin:round"
       id="path597"
       d="m 3.2443875,6.59595 c -0.05627,3.622013 0.076525,7.261791 0.5298762,10.858624 0.072987,0.579071 0.1889308,1.151914 0.2833963,1.727871 0.3068722,0.757375 0.1701371,0.804204 0.4153395,0.124491 9.525e-4,-0.0065 -0.090318,-0.01993 -0.091271,-0.01348 v 0 c 0.082353,0.663925 0.079176,0.619651 -0.025135,-0.130769 C 3.9295556,14.982623 3.6401076,10.79207 3.4161349,6.5965037 3.416174,6.5843594 3.2444274,6.5838064 3.2443883,6.5959481 Z" />
    <path
       style="fill:none;fill-opacity:0.823529;stroke:#23232c;stroke-width:1.715;stroke-linecap:round;stroke-linejoin:round"
       id="path599"
       d="m 2.5949795,6.0117442 c 0.1471613,0.1142616 0.2764553,0.2563111 0.4414838,0.3427846 1.3593517,0.7122869 2.9234985,0.9206357 4.3990691,1.2500163 0.4899898,0.1093769 0.9872935,0.1951458 1.4650635,0.349383 0.2971967,0.095943 0.5656054,0.2649797 0.8484082,0.3974698 0.087719,0.1457381 0.1754375,0.2914761 0.2631559,0.4372142 0.0022,0.00557 0.08099,-0.025125 0.07882,-0.030699 v 0 C 10.007417,8.5858934 9.9238548,8.4138735 9.840293,8.2418535 9.5274875,8.0664036 9.2357375,7.8465253 8.9018765,7.7155036 8.4250971,7.5283945 7.9217344,7.4159763 7.4243559,7.2937343 6.0148988,6.9473283 4.5474149,6.7793718 3.2037917,6.1942252 3.0424834,6.1239754 2.9064175,6.0061019 2.7577304,5.9120404 c -0.00705,-0.011509 -0.169801,0.088195 -0.1627509,0.099704 z" />
    <path
       style="fill:none;fill-opacity:0.823529;stroke:#23232c;stroke-width:1.715;stroke-linecap:round;stroke-linejoin:round"
       id="path601"
       d="m 1.956901,11.258155 c 1.6710053,-0.07406 3.3444753,0.0488 5.0087473,0.190027 0.010496,-0.0012 -0.00597,-0.149616 -0.016473,-0.148452 v 0 C 5.2771031,11.065596 3.5847337,10.853891 1.8972117,11.069027 c -0.013373,0.0042 0.046315,0.193349 0.059688,0.189128 z" />
    <path
       style="fill:none;fill-opacity:0.823529;stroke:#23232c;stroke-width:1.715;stroke-linecap:round;stroke-linejoin:round"
       id="path603"
       d="m 8.1051288,12.639231 c 0.015973,-0.04621 0.060917,-0.185747 0.047915,-0.138619 -0.030879,0.111926 -0.097465,0.217142 -0.1015912,0.333176 -0.011464,0.322438 0.03587,0.64429 0.05538,0.966342 0.032115,0.530111 0.061657,1.060405 0.099496,1.590138 0.1160106,1.624086 0.1647577,2.054332 0.3142446,3.655249 0.045575,0.464331 0.097083,0.928119 0.1367258,1.392994 0.021511,0.252255 -0.00546,0.510337 0.046708,0.758074 0.010385,0.04931 0.086945,-0.07333 0.086881,-0.123723 C 8.7904911,20.767241 8.723156,20.465186 8.702677,20.160252 8.5658245,18.122471 8.614902,18.400538 8.6574499,16.117493 8.816605,14.264562 8.8310346,13.1574 9.2841497,11.369199 9.4189279,10.837301 9.5603429,10.293305 9.8336149,9.8174875 9.9614256,9.5949454 10.192977,9.2977535 10.444468,9.3488691 c 0.268411,0.054555 0.354922,0.4295876 0.453812,0.6850119 0.203126,0.524661 0.294693,1.085944 0.44204,1.628916 0.242322,2.158852 0.293076,4.405388 -0.641879,6.430057 -0.389838,0.844203 -0.9826638,1.616592 -1.8707796,1.971659 -0.2614824,0.10454 -0.560895,0.05102 -0.8413424,0.07654 -0.1378699,0.224666 -0.7028207,-0.448465 -0.4932479,-0.600874 0.168293,-0.122389 0.4119724,-0.07543 0.6200428,-0.07253 0.4085243,0.0057 0.8159274,0.05094 1.2217575,0.09813 4.4059166,0.512266 -1.687871,-0.07441 3.0608496,0.359974 0.444456,-0.07202 0.908731,-0.06636 1.333369,-0.216065 0.756698,-0.26677 1.273686,-0.753897 1.524252,-1.519441 0.276529,-0.844867 0.04833,-1.262076 -0.157491,-2.067299 -0.0016,-0.0084 -0.120151,0.01399 -0.118569,0.02238 v 0 c 0.187132,0.77888 0.396277,1.160263 0.121061,1.96711 -0.242586,0.711188 -0.726016,1.164128 -1.445783,1.389086 -0.41583,0.129965 -0.865092,0.104105 -1.297638,0.156157 -0.484033,-0.05235 -0.968943,-0.09714 -1.452099,-0.157047 -0.678921,-0.08418 -2.1451653,-0.366066 -2.902756,-0.25518 -0.3535545,0.05175 -1.1248139,0.28867 -0.6085242,0.825049 0.1725353,0.179248 0.4495117,0.213386 0.6742676,0.320079 0.3180125,-0.03482 0.656885,0.01405 0.954038,-0.104462 0.9514797,-0.379469 1.6047656,-1.184424 2.0347816,-2.08818 0.990542,-2.081798 0.935615,-4.38669 0.614948,-6.607516 C 11.483844,11.02235 11.411135,10.403849 11.112375,9.8862231 10.640687,9.068986 10.06834,8.87527 9.5329403,9.717253 c -0.3041216,0.478269 -0.4654672,1.03865 -0.6137685,1.585676 -0.4911394,1.811622 -0.4813369,2.921555 -0.6251784,4.804029 0.014282,1.85966 -0.048116,2.356467 0.1786038,4.076622 0.043961,0.333537 0.059898,0.682899 0.1980636,0.989639 0.035651,0.07915 0.2288384,0.106805 0.2591742,0.02547 C 9.019771,20.957557 8.958312,20.684044 8.949036,20.426852 8.9322189,19.960537 8.8841042,19.495879 8.8516382,19.030393 8.7162398,17.4949 8.6699801,16.930653 8.5186855,15.379697 8.4669716,14.849568 8.4151953,14.319419 8.3571058,13.78995 8.3212394,13.463038 8.3211306,13.128573 8.2368325,12.810686 8.0511567,12.110504 8.0082595,12.44083 7.9615439,12.620435 c -0.00132,0.01015 0.1422551,0.02895 0.1435841,0.01879 z" />
    <path
       style="fill:none;fill-opacity:0.823529;stroke:#23232c;stroke-width:1.715;stroke-linecap:round;stroke-linejoin:round"
       id="path605"
       d="m 13.958143,13.263455 c 0.0046,-0.111942 0.01194,-0.223805 0.01378,-0.335827 0.0016,-0.100764 -0.0031,-0.683769 -0.0056,-0.798742 -0.0012,-0.05689 0.03485,-0.208099 -0.0079,-0.170522 -0.364142,0.32024 -0.292339,1.315421 -0.312831,1.536472 -0.126299,2.162524 -0.400851,4.336797 -0.287808,6.50756 0.0422,0.810419 0.140082,2.270954 0.761318,2.992343 0.222867,0.258796 0.597878,0.330336 0.896817,0.495503 0.408598,-0.0284 0.824825,-0.0016 1.225792,-0.08521 0.449383,-0.09366 0.877599,-0.272665 1.30423,-0.442083 0.771958,-0.306549 1.738874,-0.79108 2.450388,-1.232607 0.298524,-0.185248 0.574155,-0.405067 0.861233,-0.6076 0.0074,-0.0065 -0.08441,-0.111778 -0.09186,-0.105282 v 0 c -1.121733,0.67062 -0.775516,0.500345 -2.081801,1.1065 -0.766321,0.355596 -1.703788,0.795515 -2.529605,1.0127 -0.316323,0.08319 -0.646912,0.0971 -0.970367,0.145653 -0.262347,-0.127601 -0.598658,-0.160047 -0.787039,-0.382802 -0.565105,-0.668217 -0.62168,-2.182799 -0.650318,-2.884935 -0.08835,-2.166134 0.159718,-4.334544 0.183845,-6.498951 0.0075,-0.326178 0.207162,-1.177675 -0.150474,-1.56023 -0.03927,-0.042 -0.0072,0.114844 -0.0072,0.172341 -2.1e-5,0.240462 0.01103,0.563987 0.02907,0.801357 0.0085,0.112452 0.02359,0.224315 0.03539,0.336473 1.49e-4,0.0086 0.121084,0.0064 0.120935,-0.0021 z" />
    <path
       style="fill:none;fill-opacity:0.823529;stroke:#23232c;stroke-width:1.715;stroke-linecap:round;stroke-linejoin:round"
       id="path607"
       d="m 14.009451,17.362536 c 1.580543,0.132956 3.14733,-0.136634 4.697664,-0.408229 0.0085,-0.0033 -0.0385,-0.124126 -0.04704,-0.1208 v 0 c -1.554709,0.221686 -3.117854,0.329168 -4.687419,0.378037 -0.01068,0.0026 0.02612,0.153595 0.0368,0.150992 z" />
    <path
       style="fill:none;fill-opacity:0.823529;stroke:#23232c;stroke-width:1.715;stroke-linecap:round;stroke-linejoin:round"
       id="path609"
       d="m 14.295898,13.811728 c 1.423596,-0.254517 2.846938,-0.541437 4.285796,-0.699196 0.391383,-0.04291 0.785312,-0.05809 1.177969,-0.08713 0.01018,-0.003 -0.03204,-0.147018 -0.04223,-0.144032 v 0 c -1.85769,0.06761 -3.713276,0.239929 -5.506897,0.759853 -0.01206,0.006 0.0733,0.17654 0.08536,0.170504 z" />
    <path
       style="fill:none;fill-opacity:0.823529;stroke:#23232c;stroke-width:1.715;stroke-linecap:round;stroke-linejoin:round"
       id="path611"
       d="m 20.261675,13.31586 c -0.262173,2.382331 -0.520067,4.77693 -0.544756,7.176281 -0.0052,0.504797 0.02494,1.00934 0.03741,1.51401 0.08105,0.480522 0.05643,1.288115 0.592948,1.611362 0.520819,0.313786 1.494167,-0.0077 1.930738,-0.111206 1.106593,-0.262244 2.200741,-0.574545 3.303053,-0.854241 1.219359,-0.278858 2.425528,-0.594068 3.588877,-1.053465 0.0072,-0.0041 -0.05014,-0.105622 -0.05732,-0.101568 v 0 c -1.211511,0.349099 -2.451219,0.563631 -3.679254,0.848363 -2.659876,0.688921 -0.839214,0.199558 -3.278254,0.895508 -0.209576,0.0598 -1.230422,0.446024 -1.599651,0.257414 -0.489946,-0.250274 -0.439558,-1.145274 -0.484522,-1.491973 -0.0021,-0.499226 -0.0173,-0.99857 -0.0062,-1.497676 0.05332,-2.397025 0.297637,-4.786857 0.349803,-7.183719 6.35e-4,-0.01081 -0.152234,-0.0199 -0.152877,-0.0091 z" />
    <path
       style="fill:none;fill-opacity:0.823529;stroke:#23232c;stroke-width:1.715;stroke-linecap:round;stroke-linejoin:round"
       id="path613"
       d="m 20.750052,18.086481 c 0.991083,-0.09746 0.439373,-0.02808 1.651963,-0.231953 0.0094,-0.0034 -0.03904,-0.136287 -0.04843,-0.132862 v 0 c -1.241116,0.104369 -0.685028,0.0383 -1.670619,0.177268 -0.01326,0.0047 0.05383,0.192291 0.06709,0.187547 z" />
    <path
       style="fill:none;fill-opacity:0.823529;stroke:#23232c;stroke-width:1.715;stroke-linecap:round;stroke-linejoin:round"
       id="path615"
       d="m 20.718393,15.220288 c 0.05791,-0.102267 0.08916,-0.225202 0.173736,-0.306801 0.463428,-0.447085 1.201219,-0.699689 1.760073,-0.90799 1.281955,-0.477823 1.80457,-0.586067 3.119117,-0.940481 0.01248,-0.0061 -0.07371,-0.182506 -0.08618,-0.176412 v 0 c -1.159249,0.298409 -2.040223,0.4942 -3.16786,0.910428 -0.665991,0.245827 -1.351149,0.471198 -1.823334,1.030663 -0.09223,0.109275 -0.111615,0.263306 -0.167423,0.394959 3.17e-4,0.01357 0.192182,0.0092 0.191873,-0.0044 z" />
    <path
       style="fill:none;fill-opacity:0.823529;stroke:#23232c;stroke-width:1.715;stroke-linecap:round;stroke-linejoin:round"
       id="path617"
       d="m 28.852069,18.343909 c -0.114224,-1.219719 -0.375621,-2.419424 -0.540354,-3.631833 -0.06328,-0.465696 -0.260995,-1.759653 -0.07249,-2.306993 0.06329,-0.18377 0.274326,-0.275416 0.411491,-0.413125 0.223308,0.09384 0.47621,0.136103 0.669925,0.281524 0.357211,0.268156 0.72491,0.556737 0.955942,0.939008 0.352666,0.583534 0.599072,1.236575 0.759418,1.899278 0.453964,1.876223 0.381304,3.356337 -0.06546,5.238008 -0.20089,0.846108 -0.57404,1.641797 -0.861063,2.462695 -0.769149,1.329384 -0.93432,1.912367 -2.000033,2.871462 -0.131112,0.117996 -0.297934,0.252587 -0.473556,0.236148 -0.118293,-0.01107 0.155622,-0.18093 0.246554,-0.257396 0.908643,-0.764094 0.765712,-0.584772 2.015278,-1.175261 1.482363,-0.611596 3.110511,-0.516211 4.641991,-0.897889 0.363995,-0.09072 0.70613,-0.25351 1.059196,-0.380265 0.0087,-0.0048 -0.05986,-0.127472 -0.06853,-0.122626 v 0 c -0.356082,0.09846 -0.704578,0.230316 -1.068248,0.295386 -0.477694,0.08547 -0.965933,0.0956 -1.447593,0.154764 -2.036218,0.25011 -1.323113,0.13079 -3.306945,0.690576 -0.432292,0.224599 -0.894747,0.398816 -1.296874,0.673797 -0.287584,0.196655 -0.589574,0.418071 -0.751194,0.726707 -0.07799,0.148938 -0.04548,0.436127 0.113268,0.491488 0.201284,0.0702 0.424087,-0.112608 0.590256,-0.246142 1.144762,-0.919938 1.364678,-1.617705 2.156841,-2.941391 0.296444,-0.844769 0.687782,-1.662016 0.889331,-2.534307 0.440933,-1.908301 0.496887,-3.518233 -0.02032,-5.408995 -0.322485,-1.178899 -0.846913,-2.31312 -1.948458,-2.940417 -0.289346,-0.164773 -0.652867,-0.131329 -0.979302,-0.196994 -0.163539,0.178267 -0.405197,0.308467 -0.490615,0.534804 -0.219136,0.580646 -0.0384,1.850666 0.03281,2.369189 0.166251,1.21061 0.450707,2.402825 0.649052,3.608015 0.0013,0.01412 0.201054,-0.0051 0.199694,-0.01922 z" />
    <path
       style="fill:none;fill-opacity:0.823529;stroke:#23232c;stroke-width:1.715;stroke-linecap:round;stroke-linejoin:round"
       id="path619"
       d="m 37.593788,15.80133 c -0.170833,-0.232198 -0.348827,-0.540345 -0.667562,-0.608867 -1.147239,-0.246634 -2.242093,0.662526 -2.688942,1.652152 -0.210801,0.466858 -0.23445,0.997299 -0.351674,1.495949 0.07463,0.560922 0.04712,1.14522 0.223888,1.682767 0.566068,1.7214 2.030847,3.022399 3.799255,3.399756 0.473885,0.101122 0.968971,0.0164 1.453457,0.0246 0.01109,0.0032 0.05582,-0.153581 0.04473,-0.156744 v 0 c -0.455274,-0.02165 -0.922811,0.04223 -1.365819,-0.06495 -1.645134,-0.398011 -3.03553,-1.633623 -3.590633,-3.238027 -0.174345,-0.50391 -0.159841,-1.05439 -0.239763,-1.581585 0.09816,-0.465788 0.108437,-0.959204 0.294476,-1.397362 0.320378,-0.754552 1.341681,-1.776086 2.269408,-1.652702 0.271494,0.03611 0.48551,0.312191 0.656092,0.49599 0.0036,0.01153 0.16669,-0.03945 0.163084,-0.05098 z" />
    <path
       style="fill:none;fill-opacity:0.823529;stroke:#23232c;stroke-width:1.715;stroke-linecap:round;stroke-linejoin:round"
       id="path621"
       d="m 33.69207,19.480903 c 1.957959,-1.184379 4.259398,-1.598441 6.491563,-1.928688 0.23055,-0.08347 0.492567,-0.107273 0.691647,-0.250405 0.626028,-0.450089 0.404231,-1.439322 0.186553,-2.023514 -0.07392,-0.198384 -0.13335,-0.435713 -0.307917,-0.555491 -0.123931,-0.08503 -0.299649,0.02388 -0.449474,0.03581 -0.100148,0.299288 -0.24729,0.586773 -0.300448,0.897864 -0.168799,0.987886 -0.141205,2.603585 -0.09941,3.554385 0.04267,0.970656 0.151927,2.284807 0.350124,3.270785 0.03837,0.190877 0.122507,0.369615 0.183763,0.554423 0.09604,-0.127489 0.257189,-0.225877 0.288108,-0.382467 0.0793,-0.401624 0.02769,-0.8184 0.02983,-1.227772 0.0033,-0.629274 -0.01095,-1.258521 -0.01355,-1.887798 -0.0059,-1.442933 -0.04414,-2.915477 0.121528,-4.353771 0.06765,-0.587342 0.215953,-1.162564 0.32393,-1.743845 0.209126,-0.344534 0.317029,-0.776466 0.62738,-1.0336 0.647051,-0.536097 1.243663,0.0042 1.590164,0.517195 0.69051,1.022253 0.891106,2.075555 0.81806,3.307551 -0.03997,0.674218 -0.262274,1.325097 -0.393412,1.987646 -0.673867,1.534063 -1.402778,2.890258 -2.949789,3.689507 -0.219829,0.113572 -0.472059,0.154374 -0.715978,0.195925 -0.05677,0.0097 -0.208511,-0.0851 -0.166632,-0.04557 0.08098,0.07642 0.194257,0.108878 0.291385,0.163316 1.706642,0.309022 3.385706,0.762735 5.121968,0.904198 1.018972,0.08302 2.049881,0.1843 3.066169,0.07316 3.010752,-0.32926 3.749408,-0.936752 6.39539,-2.184242 0.0205,-0.01541 -0.19739,-0.305496 -0.217903,-0.290087 v 0 c -2.52489,1.152782 -3.252182,1.734882 -6.061798,2.021762 -2.838928,0.289873 -5.605502,-0.540893 -8.407553,-0.751865 -0.09474,0.09551 -0.324125,0.158073 -0.284207,0.286543 0.03981,0.128144 0.262601,0.08835 0.395898,0.07292 0.277141,-0.03208 0.559702,-0.08833 0.809564,-0.21245 1.69317,-0.841104 2.386664,-2.209866 3.11857,-3.866769 0.312544,-1.697054 0.64375,-2.368056 0.160835,-4.074673 -0.240713,-0.850672 -0.862428,-2.005438 -1.869588,-2.216121 -1.010441,-0.21137 -1.300128,0.795751 -1.679948,1.398539 -0.120264,0.594003 -0.286658,1.180504 -0.360789,1.782008 -0.174651,1.41713 -0.132043,2.951846 -0.09412,4.373193 0.01677,0.628357 0.05054,1.256146 0.07643,1.884194 0.01643,0.398841 -0.0031,0.800921 0.05055,1.196471 0.01812,0.133485 0.108122,0.246774 0.162182,0.370161 -0.238885,-1.243497 -0.329113,-2.516079 -0.392417,-3.779016 -0.05393,-1.076019 -0.09641,-2.398012 -0.01003,-3.491526 0.02045,-0.258978 0.08941,-0.51182 0.134112,-0.767729 0.04441,-0.04463 0.0865,-0.176097 0.133239,-0.133901 0.346416,0.31276 0.612121,1.445438 0.504499,1.887421 -0.03909,0.160533 -0.136704,0.320799 -0.273589,0.413328 -0.193371,0.130712 -0.443,0.147189 -0.664501,0.220784 -2.062933,0.248166 -4.157769,0.608945 -5.999684,1.63073 -0.200594,0.111278 -0.37809,0.259869 -0.567137,0.389804 -0.0086,0.01106 0.14781,0.132737 0.156414,0.121677 z" />
  </g>
</svg>
