<?xml version="1.0" encoding="UTF-8" standalone="no"?>
<!-- Created with Inkscape (http://www.inkscape.org/) -->

<svg
   width="200"
   height="400"
   viewBox="0 0 52.916665 105.83333"
   version="1.1"
   id="svg5"
   inkscape:version="1.2.2 (732a01da63, 2022-12-09)"
   sodipodi:docname="fridge.svg"
   xmlns:inkscape="http://www.inkscape.org/namespaces/inkscape"
   xmlns:sodipodi="http://sodipodi.sourceforge.net/DTD/sodipodi-0.dtd"
   xmlns="http://www.w3.org/2000/svg"
   xmlns:svg="http://www.w3.org/2000/svg">
  <sodipodi:namedview
     id="namedview7"
     pagecolor="#ffffff"
     bordercolor="#000000"
     borderopacity="0.25"
     inkscape:showpageshadow="2"
     inkscape:pageopacity="0.0"
     inkscape:pagecheckerboard="false"
     inkscape:deskcolor="#d1d1d1"
     inkscape:document-units="mm"
     showgrid="false"
     showborder="false"
     inkscape:zoom="1.4770342"
     inkscape:cx="-86.998663"
     inkscape:cy="185.84539"
     inkscape:window-width="1920"
     inkscape:window-height="991"
     inkscape:window-x="-9"
     inkscape:window-y="-9"
     inkscape:window-maximized="1"
     inkscape:current-layer="layer1" />
  <defs
     id="defs2" />
  <g
     inkscape:label="Vrstva 1"
     inkscape:groupmode="layer"
     id="layer1">
    <rect
       style="fill:none;fill-opacity:0.823529;stroke:#e2deb5;stroke-width:1.67825;stroke-linecap:round;stroke-linejoin:round;stroke-opacity:1"
       id="rect234"
       width="51.626617"
       height="104.29126"
       x="0.51901865"
       y="1.0564131"
       ry="2.1519806" />
    <path
       style="fill:none;fill-opacity:0.823529;stroke:#e2deb5;stroke-width:1.715;stroke-linecap:round;stroke-linejoin:round;stroke-opacity:1"
       id="path397"
       d="m 6.1686432,52.014102 c 3.0325962,0.116494 6.0683978,0.176611 9.1033088,0.204405 1.068082,0.01045 2.1357,-0.0029 3.201946,-0.06446 0.02216,0.005 0.09313,-0.308445 0.07096,-0.313461 v 0 c -1.054025,-0.0062 -2.107811,-0.02778 -3.161673,-0.04704 -3.042987,-0.05383 -6.0860879,-0.09475 -9.1295447,-0.06032 -0.019858,-0.006 -0.1048562,0.274851 -0.084996,0.280862 z" />
    <path
       style="fill:none;fill-opacity:0.823529;stroke:#e2deb5;stroke-width:1.715;stroke-linecap:round;stroke-linejoin:round;stroke-opacity:1"
       id="path510"
       d="M 3.8862836,7.5295738 C 3.7816747,7.1797055 3.6965432,6.8240261 3.5927712,6.4739702 3.5730968,6.4075989 3.5910514,6.2535405 3.526037,6.2773057 c -0.094682,0.034607 -0.1328431,0.169714 -0.1352529,0.270493 -0.00829,0.3465907 0.06936,0.6899016 0.1040394,1.0348526 0.2669752,2.1894226 0.5973839,4.3710087 0.9830089,6.5426467 0.1294987,0.72927 0.4863173,2.706293 0.7366801,3.564942 0.041177,0.141222 0.1327531,0.262551 0.1991297,0.393827 0.051759,-0.230609 0.1614127,-0.45556 0.1552752,-0.691826 -0.016542,-0.636825 -0.469473,-2.816106 -0.5664512,-3.317342 -0.00365,-0.02003 -0.2868864,0.03165 -0.2832322,0.05168 v 0 c 0.1242787,0.607279 0.2536668,1.213536 0.3728365,1.821839 0.3482636,1.777719 0.079971,0.947806 0.500303,2.077117 C 5.2782644,16.727549 5.0881181,15.379482 4.8607744,14.066741 4.4848637,11.896137 4.1142586,9.7246177 3.739874,7.5537511 3.6782967,7.2144323 3.6521014,6.8667447 3.5551424,6.5357946 3.5286336,6.445311 3.4696246,6.3346427 3.3772194,6.3159009 c -0.066226,-0.013433 0.037076,0.1299652 0.055328,0.1950287 0.099425,0.3544183 0.1960041,0.7100435 0.3215991,1.0564195 0.00267,0.00934 0.1348079,-0.028432 0.1321371,-0.037775 z" />
    <path
       style="fill:none;fill-opacity:0.823529;stroke:#e2deb5;stroke-width:1.715;stroke-linecap:round;stroke-linejoin:round;stroke-opacity:1"
       id="path512"
       d="m 2.8786918,6.716787 c 1.8738701,0.7640984 3.9043456,1.0857759 5.9067688,1.3031314 0.00716,0.00289 0.048026,-0.098392 0.040864,-0.1012814 v 0 C 6.871827,7.5063402 4.8822588,7.1954987 2.9848741,6.5604371 2.9738198,6.5529282 2.8676362,6.7092787 2.8786918,6.716787 Z" />
    <path
       style="fill:none;fill-opacity:0.823529;stroke:#e2deb5;stroke-width:1.715;stroke-linecap:round;stroke-linejoin:round;stroke-opacity:1"
       id="path514"
       d="m 3.2071831,10.801593 c 1.5848827,0.487319 3.1985278,0.945493 4.8612959,1.055547 0.2836849,0.01878 0.5685901,0.0049 0.8528851,0.0074 0.00776,0.0021 0.037685,-0.107681 0.029922,-0.109797 v 0 c -0.2761149,-0.01477 -0.5537438,-0.01181 -0.828344,-0.04423 -1.6394448,-0.193543 -3.2173745,-0.739236 -4.8293802,-1.072201 -0.011546,-0.0061 -0.097925,0.157174 -0.086379,0.163282 z" />
    <path
       style="fill:none;fill-opacity:0.823529;stroke:#e2deb5;stroke-width:1.715;stroke-linecap:round;stroke-linejoin:round;stroke-opacity:1"
       id="path516"
       d="m 9.8813666,8.2986006 c 0.3318474,1.9881204 0.6265864,3.9885594 1.0788014,5.9543474 0.125825,0.546968 0.259504,1.094758 0.452115,1.621926 0.05383,0.14732 0.187347,0.506263 0.27894,0.378941 0.202453,-0.281426 0.123164,-0.682334 0.184745,-1.023501 -0.134794,-2.184506 -0.5434,-4.336076 -0.869999,-6.4957788 -0.08374,-0.5537668 -0.18572,-1.1061869 -0.227924,-1.6646575 -0.07611,-1.0071941 -0.210859,-0.8489331 0.413412,-0.9872204 0.217713,0.1536639 0.449516,0.289093 0.653139,0.460992 1.467503,1.2388688 2.962027,2.9621492 2.823225,5.0285557 -0.03338,0.496974 -0.256118,0.962701 -0.384177,1.444052 -0.817326,1.366106 -1.621766,2.045844 -3.06035,2.676573 -0.223175,0.09785 -0.464898,0.146985 -0.693152,0.232316 -0.05704,0.02132 -0.202057,0.0422 -0.160692,0.08689 0.145637,0.15733 0.366603,0.222382 0.549905,0.333572 1.700979,0.495221 3.358495,1.134529 5.064546,1.612915 0.730714,0.204896 2.298593,0.666434 3.170705,0.493317 0.275277,-0.05464 0.470192,-0.306548 0.705288,-0.459822 0.0016,-0.239584 0.0032,-0.479167 0.0048,-0.718751 -2.08e-4,-0.008 -0.113427,-0.0051 -0.113219,0.0029 v 0 c 0.0056,0.204466 0.01126,0.408933 0.01689,0.613399 -0.179204,0.09911 -0.333892,0.27647 -0.53761,0.297319 -0.863429,0.08837 -2.341111,-0.371095 -3.062506,-0.576714 -1.716,-0.489109 -3.397453,-1.106907 -5.143616,-1.488836 -0.182564,0.02263 -0.364371,0.05254 -0.547691,0.06787 -0.06066,0.0051 0.120121,-0.02091 0.178823,-0.03702 0.250487,-0.06873 0.508232,-0.118199 0.748304,-0.217359 0.874276,-0.361115 1.633588,-0.795805 2.284125,-1.511115 0.363817,-0.400043 0.610893,-0.892412 0.916339,-1.338619 0.128379,-0.515847 0.355277,-1.016798 0.385137,-1.547541 C 15.084462,9.852884 14.156626,8.4248365 13.043484,7.2682104 12.722999,6.9352064 12.383764,6.614189 12.004401,6.3502079 11.72389,6.1550131 11.38932,6.0521706 11.08178,5.903152 c -0.173598,0.082796 -0.432567,0.077487 -0.520794,0.248389 -0.262502,0.5084858 0.04875,2.410279 0.07928,2.6359778 0.291594,2.1555792 0.717515,4.2928802 0.982734,6.4526112 0.08306,0.30848 0.194554,0.610679 0.249193,0.925439 0.02226,0.12821 -0.117671,-0.234203 -0.151036,-0.35998 -0.142376,-0.536714 -0.256211,-1.080651 -0.375013,-1.623071 -0.333937,-1.52467 -0.639016,-3.055559 -0.971879,-4.5804638 -0.09741,-0.446274 -0.201348,-0.8911002 -0.302022,-1.3366506 -0.0024,-0.013496 -0.1932237,0.019701 -0.1908764,0.033197 z" />
    <path
       style="fill:none;fill-opacity:0.823529;stroke:#e2deb5;stroke-width:1.715;stroke-linecap:round;stroke-linejoin:round;stroke-opacity:1"
       id="path518"
       d="m 17.265359,8.5115341 c 0.227432,2.5086189 0.572269,5.0097449 1.037482,7.4856269 0.34811,1.852653 0.190526,1.330865 0.703759,2.589846 0.07168,-0.07518 0.143368,-0.150363 0.215052,-0.225544 0.0016,-0.0037 -0.05004,-0.02607 -0.05162,-0.02242 v 0 c -0.0081,0.07037 -0.01614,0.140741 -0.02422,0.211112 -0.669206,-3.332348 -1.108827,-6.708426 -1.689158,-10.0566942 -0.0013,-0.013526 -0.192571,0.00454 -0.191293,0.018071 z" />
    <path
       style="fill:none;fill-opacity:0.823529;stroke:#e2deb5;stroke-width:1.715;stroke-linecap:round;stroke-linejoin:round;stroke-opacity:1"
       id="path520"
       d="m 20.62735,9.0951623 c 0.678878,2.9900877 1.412435,5.9693647 2.033988,8.9721427 -0.0041,0.04543 -0.0083,0.09087 -0.01241,0.136301 -8.73e-4,0.003 0.04097,0.01539 0.04185,0.01243 v 0 c 0.03062,-0.05393 0.06123,-0.107866 0.09185,-0.161799 -0.01874,-0.280552 -0.0205,-0.562756 -0.05622,-0.841655 -0.147446,-1.15128 -0.396361,-2.292346 -0.653962,-3.422173 -0.363301,-1.593431 -0.768758,-3.179157 -1.247423,-4.7420616 -0.0033,-0.013978 -0.200982,0.032834 -0.197672,0.046812 z" />
    <path
       style="fill:none;fill-opacity:0.823529;stroke:#e2deb5;stroke-width:1.715;stroke-linecap:round;stroke-linejoin:round;stroke-opacity:1"
       id="path522"
       d="m 20.132837,8.1665822 c 1.864952,1.3227804 3.849148,2.5517908 5.37598,4.2842798 0.400912,0.454912 0.798009,0.927026 1.079818,1.463925 0.230452,0.439057 0.290139,0.948334 0.43521,1.422501 -0.09312,0.409969 -0.07084,0.864848 -0.279357,1.229907 -0.505987,0.885868 -1.520471,1.235692 -2.443893,1.415753 -1.023499,0.199574 -2.332141,0.114383 -3.347747,-0.06773 -0.417709,-0.0749 -0.817405,-0.228505 -1.226108,-0.342757 -0.19592,-0.144234 -0.391839,-0.288468 -0.587759,-0.432701 -0.0058,-0.0061 -0.09201,0.07637 -0.08617,0.08246 v 0 c 0.191868,0.177262 0.383737,0.354523 0.575605,0.531785 0.406476,0.157652 0.795232,0.372287 1.219428,0.472955 1.880451,0.446259 5.15565,0.399578 6.217521,-1.607463 0.218385,-0.412769 0.191074,-0.914206 0.286613,-1.371309 -0.151826,-0.50725 -0.21409,-1.05049 -0.45548,-1.52175 -0.284406,-0.555246 -0.688222,-1.045467 -1.099685,-1.514384 -1.539648,-1.754632 -3.563702,-2.9887193 -5.517458,-4.2178499 -0.01219,-0.010361 -0.158703,0.1620171 -0.146514,0.1723771 z" />
    <path
       style="fill:none;fill-opacity:0.823529;stroke:#e2deb5;stroke-width:1.715;stroke-linecap:round;stroke-linejoin:round;stroke-opacity:1"
       id="path524"
       d="m 31.099953,7.7679097 c 0.136654,0.8843158 0.317172,1.7641337 0.536289,2.6318123 0.05735,0.227094 0.120314,0.452952 0.192127,0.675895 0.02543,0.0789 0.01765,0.243744 0.09906,0.228094 0.0975,-0.01875 0.08249,-0.18062 0.123727,-0.270929 C 31.748743,10.048553 31.310812,8.6325839 30.384128,8.0572596 30.144836,7.9086971 29.850873,7.7780485 29.57263,7.8217727 c -0.325237,0.051109 -0.568968,0.3314155 -0.853454,0.4971233 -0.185092,0.3950708 -0.447749,0.7623905 -0.555273,1.1852121 -0.294156,1.1567309 -0.219072,2.6691109 -0.0068,3.8125409 0.227862,1.227531 0.715642,2.70779 1.453203,3.746254 0.309538,0.435821 0.756396,0.755567 1.134591,1.133351 0.426247,0.138019 0.830721,0.410099 1.27874,0.414057 2.176536,0.01923 3.499942,-2.549113 3.891922,-4.344415 0.09349,-0.428198 0.08567,-0.872375 0.128498,-1.308562 -0.04559,-0.453521 -0.148177,-1.673739 -0.983493,-1.393737 -0.591841,0.198389 -0.863677,0.880031 -1.109718,1.380834 -0.0021,0.0051 -0.277845,0.714729 -0.33445,0.780315 -0.317269,0.367619 -1.858824,-0.07092 -2.218666,-0.146609 -0.273195,-0.06834 -0.546391,-0.136671 -0.819584,-0.205006 -0.215238,-0.06027 -0.429154,-0.125466 -0.64571,-0.180807 -0.119959,-0.03066 -0.302043,-0.18463 -0.363358,-0.07706 -0.05945,0.104291 0.182806,0.155642 0.274209,0.233462 0.0049,0.0027 0.04318,-0.06721 0.03823,-0.06991 v 0 c -0.132697,10e-6 -0.343062,-0.120719 -0.39809,3e-5 -0.05007,0.109877 0.217689,0.105428 0.330936,0.147331 0.575442,0.212922 0.853239,0.268685 1.471668,0.432731 0.684442,0.133889 1.54959,0.413936 2.248826,0.167088 0.413715,-0.146052 0.480166,-0.666401 0.646184,-1.000295 0.119573,-0.242923 0.722529,-1.526865 1.159346,-1.306681 0.137435,0.06928 0.235082,0.218394 0.2834,0.364522 0.09056,0.273884 0.08033,0.571316 0.120491,0.856974 -0.04776,0.416427 -0.05007,0.84062 -0.143274,1.249283 -0.326824,1.432977 -1.038265,2.958208 -2.332051,3.770645 -0.331195,0.207975 -0.715785,0.383041 -1.106815,0.389159 -0.406646,0.0064 -0.778489,-0.235711 -1.167736,-0.353567 -0.354603,-0.358295 -0.775065,-0.661673 -1.063813,-1.074887 -0.698598,-0.99974 -1.179981,-2.469348 -1.410023,-3.639294 -0.214685,-1.091859 -0.317627,-2.562069 -0.08109,-3.680927 0.08194,-0.3875593 0.303707,-0.7317261 0.455562,-1.0975893 0.189463,-0.153543 0.330311,-0.4077891 0.568386,-0.460629 0.240771,-0.053439 0.507108,0.048569 0.71892,0.1749139 0.900224,0.5369817 1.32375,1.9295794 1.688261,2.8510854 0.07743,0.06165 0.136311,0.209084 0.232294,0.184938 0.0763,-0.01919 -0.03888,-0.152469 -0.0579,-0.228808 -0.056,-0.224734 -0.113758,-0.449044 -0.167153,-0.674409 C 31.72928,9.7235189 31.592321,9.0939119 31.444948,8.4667287 31.38829,8.2256015 31.32896,7.9851101 31.270966,7.7443009 c -0.0016,-0.012094 -0.172691,0.011515 -0.171021,0.023609 z" />
    <path
       style="fill:none;fill-opacity:0.823529;stroke:#e2deb5;stroke-width:1.715;stroke-linecap:round;stroke-linejoin:round;stroke-opacity:1"
       id="path526"
       d="m 36.425968,8.273648 c 0.01225,2.584995 -0.06167,5.173588 0.07281,7.756665 0.02798,0.537443 0.0827,1.07316 0.124047,1.60974 0.315929,0.0894 -0.05695,1.280801 0.412972,1.500746 0.149072,0.06977 0.343551,-0.01852 0.481889,-0.107698 0.228761,-0.14747 0.382069,-0.387847 0.578712,-0.576022 0.26638,-0.254909 0.515954,-0.530824 0.81016,-0.753042 0.345625,-0.261056 0.733896,-0.460247 1.100844,-0.690371 0.421222,-0.16484 0.830267,-0.365042 1.263668,-0.494522 0.875115,-0.261442 1.981959,-0.41629 2.89038,-0.200415 0.401389,0.09538 0.236051,0.146243 0.07243,0.292207 -0.0021,0.0035 0.04676,0.035 0.04899,0.03154 v 0 c 0.06317,-0.08401 0.200543,-0.147494 0.189505,-0.252019 -0.03468,-0.328389 -0.901261,-0.419846 -0.941239,-0.423598 -1.311003,-0.123051 -2.576,0.25405 -3.744077,0.817417 -1.25072,0.833675 -0.939358,0.523367 -1.902446,1.523278 -0.171985,0.178562 -0.334466,0.366115 -0.496846,0.553454 -0.05243,0.06049 -0.07943,0.23215 -0.147277,0.189681 -0.413962,-0.259094 0.06132,-1.348572 -0.298514,-1.434343 -0.174109,-3.115419 -0.152379,-6.237138 -0.343088,-9.3516148 -5.29e-4,-0.012226 -0.173548,-0.0033 -0.172915,0.00892 z" />
    <path
       style="fill:none;fill-opacity:0.823529;stroke:#e2deb5;stroke-width:1.715;stroke-linecap:round;stroke-linejoin:round;stroke-opacity:1"
       id="path528"
       d="m 36.6938,13.083575 c 1.157528,0.179444 2.293906,0.479319 3.450698,0.661999 0.304025,0.04801 0.609124,0.101061 0.916784,0.110159 0.202182,0.006 0.402196,-0.04347 0.603295,-0.06521 0.06049,-0.09927 0.120984,-0.198544 0.181475,-0.297816 0.0016,-0.0037 -0.05032,-0.02641 -0.05193,-0.02274 v 0 c -0.03514,0.05754 -0.07028,0.115075 -0.105416,0.172612 -0.184806,-0.0014 -0.370596,0.0149 -0.554421,-0.0042 -1.475287,-0.153091 -2.901971,-0.655856 -4.385873,-0.757673 -0.01434,-0.0039 -0.06896,0.198979 -0.05461,0.20284 z" />
    <path
       style="fill:none;fill-opacity:0.823529;stroke:#e2deb5;stroke-width:1.715;stroke-linecap:round;stroke-linejoin:round;stroke-opacity:1"
       id="path530"
       d="m 36.09845,9.1278677 c 0.938197,-0.1608114 1.882394,-0.2544945 2.83436,-0.2777323 0.806688,-0.01969 1.57236,0.045276 2.377395,-0.034141 0.283615,-0.027979 0.560266,-0.1047806 0.840399,-0.157171 0.125772,-0.079247 0.251547,-0.1584941 0.377319,-0.2377413 0.0051,-0.00417 -0.0539,-0.076188 -0.05899,-0.072017 v 0 c -0.12424,0.057755 -0.248478,0.1155107 -0.372715,0.1732661 -1.302642,0.1019318 -0.178335,0.041899 -1.859913,0.015634 -1.424135,-0.022243 -2.860836,0.02205 -4.2419,0.407008 -0.01294,0.00736 0.09111,0.1902518 0.104044,0.1828948 z" />
  </g>
</svg>
