<?xml version="1.0" encoding="UTF-8" standalone="no"?>
<!-- Created with Inkscape (http://www.inkscape.org/) -->

<svg
   width="25.449888mm"
   height="34.218365mm"
   viewBox="0 0 25.449888 34.218365"
   version="1.1"
   id="svg5"
   xml:space="preserve"
   xmlns="http://www.w3.org/2000/svg"
   xmlns:svg="http://www.w3.org/2000/svg"><defs
     id="defs2" /><g
     id="layer1"
     transform="translate(-250.42252,241.39184)"><g
       id="g922"
       transform="matrix(0.21396618,0,0,0.21396618,233.94149,-257.10634)"><path
         id="circle828"
         style="fill:#ffffff;stroke:none;stroke-width:9.98373;stroke-linecap:round;stroke-linejoin:round"
         d="m 136.49813,73.443839 a 59.471653,59.471653 0 0 0 -59.471824,59.471821 59.471653,59.471653 0 0 0 59.471824,59.4713 59.471653,59.471653 0 0 0 59.47182,-59.4713 59.471653,59.471653 0 0 0 -59.47182,-59.471821 z m 0,9.673311 a 49.798553,49.798553 0 0 1 49.79851,49.79851 49.798553,49.798553 0 0 1 -49.79851,49.79851 49.798553,49.798553 0 0 1 -49.798512,-49.79851 49.798553,49.798553 0 0 1 49.798512,-49.79851 z" /><path
         id="path914"
         style="fill:#ff00ff;stroke:none;stroke-width:7.17463;stroke-linecap:round;stroke-linejoin:round"
         d="m 167.7861,110.63103 a 40.819339,36.333636 0 0 1 -10.42676,16.42535 40.819339,36.333636 0 0 1 -21.34133,10.14047 38.98935,35.786869 0 0 1 -19.8329,-9.88054 38.98935,35.786869 0 0 1 -9.95908,-16.17834 h -7.827949 a 42.738275,42.738275 0 0 0 -3.98735,17.93431 42.738275,42.738275 0 0 0 8.154539,25.05738 h 9.05423 a 35.786869,35.786869 0 0 1 -10.25726,-25.05738 35.786869,35.786869 0 0 1 0.89969,-7.8543 46.56282,42.738275 0 0 0 8.53436,10.98279 46.56282,42.738275 0 0 0 25.50387,12.099 48.748275,43.391248 0 0 0 26.70122,-12.284 48.748275,43.391248 0 0 0 8.8253,-10.95696 35.786869,35.786869 0 0 1 0.8232,7.50652 35.786869,35.786869 0 0 1 -10.24175,25.05739 h 9.03872 a 42.738275,42.738275 0 0 0 8.15455,-25.05739 42.738275,42.738275 0 0 0 -3.9486,-17.9343 z" /></g><text
       xml:space="preserve"
       style="font-style:normal;font-variant:normal;font-weight:normal;font-stretch:normal;font-size:6.37949px;line-height:0px;font-family:Carme;-inkscape-font-specification:'Carme, Normal';font-variant-ligatures:normal;font-variant-caps:normal;font-variant-numeric:normal;font-variant-east-asian:normal;fill:#e6e6e6;stroke-width:2.69636;stroke-linecap:round;stroke-linejoin:round"
       x="254.60307"
       y="-210.25012"
       id="text290"><tspan
         id="tspan288"
         style="font-style:normal;font-variant:normal;font-weight:normal;font-stretch:normal;font-size:6.37949px;font-family:Carme;-inkscape-font-specification:'Carme, Normal';font-variant-ligatures:normal;font-variant-caps:normal;font-variant-numeric:normal;font-variant-east-asian:normal;fill:#e6e6e6;stroke-width:2.69634"
         x="254.60307"
         y="-210.25012">ONLY</tspan><tspan
         style="font-style:normal;font-variant:normal;font-weight:normal;font-stretch:normal;font-size:6.37949px;font-family:Carme;-inkscape-font-specification:'Carme, Normal';font-variant-ligatures:normal;font-variant-caps:normal;font-variant-numeric:normal;font-variant-east-asian:normal;fill:#e6e6e6;stroke-width:2.69634"
         x="254.60307"
         y="-210.25012"
         id="tspan292" /></text><text
       xml:space="preserve"
       style="font-style:normal;font-variant:normal;font-weight:normal;font-stretch:normal;font-size:3.62315px;line-height:0px;font-family:Carme;-inkscape-font-specification:'Carme, Normal';font-variant-ligatures:normal;font-variant-caps:normal;font-variant-numeric:normal;font-variant-east-asian:normal;fill:#e6e6e6;stroke-width:1.53136;stroke-linecap:round;stroke-linejoin:round"
       x="255.05023"
       y="-207.22832"
       id="text400"><tspan
         id="tspan398"
         style="fill:#e6e6e6;stroke-width:1.53135"
         x="255.05023"
         y="-207.22832">MEMBERS</tspan></text></g></svg>
