<?xml version="1.0" encoding="UTF-8" standalone="no"?>
<!-- Created with Inkscape (http://www.inkscape.org/) -->

<svg
   width="642.65363mm"
   height="585.76538mm"
   viewBox="0 0 642.65363 585.76538"
   version="1.1"
   id="svg5"
   xml:space="preserve"
   inkscape:version="1.2.2 (732a01da63, 2022-12-09)"
   sodipodi:docname="logo.svg"
   inkscape:export-filename="logo.svg"
   inkscape:export-xdpi="96"
   inkscape:export-ydpi="96"
   xmlns:inkscape="http://www.inkscape.org/namespaces/inkscape"
   xmlns:sodipodi="http://sodipodi.sourceforge.net/DTD/sodipodi-0.dtd"
   xmlns:xlink="http://www.w3.org/1999/xlink"
   xmlns="http://www.w3.org/2000/svg"
   xmlns:svg="http://www.w3.org/2000/svg"><sodipodi:namedview
     id="namedview7"
     pagecolor="#ffffff"
     bordercolor="#000000"
     borderopacity="0.25"
     inkscape:showpageshadow="2"
     inkscape:pageopacity="0.0"
     inkscape:pagecheckerboard="0"
     inkscape:deskcolor="#ffffff"
     inkscape:document-units="mm"
     showgrid="false"
     showborder="false"
     inkscape:zoom="1.0444209"
     inkscape:cx="1916.3729"
     inkscape:cy="254.68659"
     inkscape:window-width="1920"
     inkscape:window-height="1009"
     inkscape:window-x="-8"
     inkscape:window-y="-8"
     inkscape:window-maximized="1"
     inkscape:current-layer="layer1" /><defs
     id="defs2"><linearGradient
       inkscape:collect="always"
       id="linearGradient3615"><stop
         style="stop-color:#3e3e3e;stop-opacity:1;"
         offset="0"
         id="stop3611" /><stop
         style="stop-color:#000000;stop-opacity:1;"
         offset="1"
         id="stop3613" /></linearGradient><radialGradient
       inkscape:collect="always"
       xlink:href="#linearGradient3615"
       id="radialGradient3617"
       cx="303.31723"
       cy="-157.87807"
       fx="303.31723"
       fy="-157.87807"
       r="76.758888"
       gradientTransform="matrix(0.20809355,-0.04978553,0.09321319,0.38961247,210.95115,-148.71437)"
       gradientUnits="userSpaceOnUse" /></defs><g
     inkscape:label="Vrstva 1"
     inkscape:groupmode="layer"
     id="layer1"
     transform="translate(242.94556,265.87435)"><path
       id="rect746"
       style="fill:url(#radialGradient3617);fill-opacity:1;stroke-width:1.87642;stroke-linecap:round;stroke-linejoin:round"
       d="m 251.73316,-244.06662 c -2.77528,0 -5.00949,2.53373 -5.00949,5.68091 v 20.47858 c 0,2.02174 0.2309,4.1208 1.71926,6.68288 0.58418,1.06802 1.34776,2.14012 2.33236,3.18057 0.44993,0.51325 0.94613,1.04361 1.49988,1.5953 3.77387,3.75977 7.11022,5.73813 10.87225,5.47628 3.76208,0.26189 7.09845,-1.71647 10.87236,-5.47628 0.55376,-0.5517 1.05005,-1.08204 1.49999,-1.5953 0.98408,-1.03991 1.7473,-2.11147 2.33137,-3.17894 1.48921,-2.56282 1.72014,-4.66234 1.72014,-6.68451 v -20.47858 c 0,-3.14718 -2.2342,-5.68091 -5.00949,-5.68091 z" /><g
       id="g922"
       transform="matrix(0.21396618,0,0,0.21396618,233.94149,-257.10634)"><path
         id="circle828"
         style="fill:#ffffff;stroke:none;stroke-width:9.98373;stroke-linecap:round;stroke-linejoin:round"
         d="m 136.49813,73.443839 a 59.471653,59.471653 0 0 0 -59.471824,59.471821 59.471653,59.471653 0 0 0 59.471824,59.4713 59.471653,59.471653 0 0 0 59.47182,-59.4713 59.471653,59.471653 0 0 0 -59.47182,-59.471821 z m 0,9.673311 a 49.798553,49.798553 0 0 1 49.79851,49.79851 49.798553,49.798553 0 0 1 -49.79851,49.79851 49.798553,49.798553 0 0 1 -49.798512,-49.79851 49.798553,49.798553 0 0 1 49.798512,-49.79851 z" /><path
         id="path914"
         style="fill:#ff00ff;stroke:none;stroke-width:7.17463;stroke-linecap:round;stroke-linejoin:round"
         d="m 167.7861,110.63103 a 40.819339,36.333636 0 0 1 -10.42676,16.42535 40.819339,36.333636 0 0 1 -21.34133,10.14047 38.98935,35.786869 0 0 1 -19.8329,-9.88054 38.98935,35.786869 0 0 1 -9.95908,-16.17834 h -7.827949 a 42.738275,42.738275 0 0 0 -3.98735,17.93431 42.738275,42.738275 0 0 0 8.154539,25.05738 h 9.05423 a 35.786869,35.786869 0 0 1 -10.25726,-25.05738 35.786869,35.786869 0 0 1 0.89969,-7.8543 46.56282,42.738275 0 0 0 8.53436,10.98279 46.56282,42.738275 0 0 0 25.50387,12.099 48.748275,43.391248 0 0 0 26.70122,-12.284 48.748275,43.391248 0 0 0 8.8253,-10.95696 35.786869,35.786869 0 0 1 0.8232,7.50652 35.786869,35.786869 0 0 1 -10.24175,25.05739 h 9.03872 a 42.738275,42.738275 0 0 0 8.15455,-25.05739 42.738275,42.738275 0 0 0 -3.9486,-17.9343 z" /></g><text
       xml:space="preserve"
       style="font-style:normal;font-variant:normal;font-weight:normal;font-stretch:normal;font-size:6.37949px;line-height:0px;font-family:Carme;-inkscape-font-specification:'Carme, Normal';font-variant-ligatures:normal;font-variant-caps:normal;font-variant-numeric:normal;font-variant-east-asian:normal;fill:#e6e6e6;stroke-width:2.69636;stroke-linecap:round;stroke-linejoin:round"
       x="254.60307"
       y="-210.25012"
       id="text290"><tspan
         sodipodi:role="line"
         id="tspan288"
         style="font-style:normal;font-variant:normal;font-weight:normal;font-stretch:normal;font-size:6.37949px;font-family:Carme;-inkscape-font-specification:'Carme, Normal';font-variant-ligatures:normal;font-variant-caps:normal;font-variant-numeric:normal;font-variant-east-asian:normal;fill:#e6e6e6;stroke-width:2.69634"
         x="254.60307"
         y="-210.25012">ONLY</tspan><tspan
         sodipodi:role="line"
         style="font-style:normal;font-variant:normal;font-weight:normal;font-stretch:normal;font-size:6.37949px;font-family:Carme;-inkscape-font-specification:'Carme, Normal';font-variant-ligatures:normal;font-variant-caps:normal;font-variant-numeric:normal;font-variant-east-asian:normal;fill:#e6e6e6;stroke-width:2.69634"
         x="254.60307"
         y="-210.25012"
         id="tspan292" /></text><text
       xml:space="preserve"
       style="font-style:normal;font-variant:normal;font-weight:normal;font-stretch:normal;font-size:3.62315px;line-height:0px;font-family:Carme;-inkscape-font-specification:'Carme, Normal';font-variant-ligatures:normal;font-variant-caps:normal;font-variant-numeric:normal;font-variant-east-asian:normal;fill:#e6e6e6;stroke-width:1.53136;stroke-linecap:round;stroke-linejoin:round"
       x="255.05023"
       y="-207.22832"
       id="text400"><tspan
         sodipodi:role="line"
         id="tspan398"
         style="fill:#e6e6e6;stroke-width:1.53135"
         x="255.05023"
         y="-207.22832">MEMBERS</tspan></text></g></svg>
